<?xml version="1.0" encoding="UTF-8"?>
<svg id="Layer_2" data-name="Layer 2" xmlns="http://www.w3.org/2000/svg" xmlns:xlink="http://www.w3.org/1999/xlink" viewBox="0 0 1062 321.24">
  <defs>
    <style>
      .cls-1 {
        fill: #02ad6b;
      }

      .cls-2 {
        fill: url(#linear-gradient);
      }
    </style>
    <linearGradient id="linear-gradient" x1="601.85" y1="115.47" x2="335.88" y2="257.9" gradientUnits="userSpaceOnUse">
      <stop offset="0" stop-color="#009ac0"/>
      <stop offset="1" stop-color="#00ad6b"/>
    </linearGradient>
  </defs>
  <g id="Layer_1-2" data-name="Layer 1">
    <g>
      <rect class="cls-1" y="1.94" width="40.64" height="317.35"/>
      <polygon class="cls-1" points="189.79 319.3 230.43 319.3 230.43 37.82 331.4 37.82 331.4 1.94 88.82 1.94 88.82 37.82 189.79 37.82 189.79 319.3"/>
      <polygon class="cls-1" points="776.74 1.94 701.79 1.94 701.79 319.3 742.42 319.3 742.42 34.13 870.74 290.24 892.58 290.24 1021.36 34.25 1021.36 319.3 1062 319.3 1062 1.94 987.52 1.94 882.13 221.21 776.74 1.94"/>
      <path class="cls-2" d="M587.39,41.89c-14.95-25.84-42.75-41.89-72.54-41.89h-45.83c-26.3,0-50.8,14.14-63.94,36.9l-71.61,124c-14.88,25.83-14.88,57.94,0,83.79l22.88,39.63c13.15,22.77,37.65,36.92,63.95,36.92h143.29c29.77,0,57.57-16.03,72.54-41.83l22.84-39.58c13.12-22.75,13.12-51.02,0-73.78l-71.58-124.15ZM484.71,109.79c1.6-2.75,3.05-5.65,4.31-8.62l4.57-10.8,62.37,108c1.61,2.77,3.43,5.49,5.39,8.08l7.1,9.36h-124.79c-3.24.03-6.54.25-9.74.66l-11.68,1.49,62.47-108.17ZM376.62,241.9l-4.38,11.45-13.43-23.29c-9.77-16.86-9.76-37.77.02-54.57l76.52-132.57c2.33-4.09,6.42-6.45,11.2-6.45,2.37,0,4.64.6,6.74,1.8.74.36,1.46,1.02,2.12,1.65.57.52,1.21,1.3,1.85,2.26,10.84,15.57,11.72,36.45,2.18,53.07l-73.61,127.34c-3.56,6.14-6.65,12.63-9.21,19.31ZM610.77,264.81c-4.75,8.24-11.66,15.12-19.99,19.91-8.21,4.77-17.62,7.3-27.19,7.3h-153.16c-8,0-12.95-6.68-12.95-12.87h5.84l-5.84-.04c0-.31,0-.67.05-1.1l.38-2.09c.25-.81.51-1.59.85-2.33,8.18-17.3,25.81-28.49,44.94-28.56h147.16c7.09,0,14.26-.55,21.32-1.64l12.03-1.86-13.43,23.29ZM639.9,198.79c-.85,3.21-3.01,6.14-5.78,7.83l-3.05,1.36c-.56.19-1.52.36-2.73.44-1.24.1-2.56.15-3.87.15-17.77,0-34.34-9.51-43.24-24.82v-.02s-73.53-127.39-73.53-127.39c-3.53-6.16-7.58-12.08-12.06-17.62l-7.68-9.5h26.89c19.43,0,37.51,10.46,47.19,27.29l76.52,132.58c1.76,3.01,2.23,6.37,1.34,9.7Z"/>
    </g>
  </g>
</svg>